<svg version="1.0" xmlns="http://www.w3.org/2000/svg"
 width="70.000000pt" height="75.000000pt" viewBox="0 0 300.000000 205.000000"
 preserveAspectRatio="xMidYMid meet">
<metadata>
Created by potrace 1.10, written by Peter Selinger 2001-2011
</metadata>
  <g transform="translate(0.000000,205.000000) scale(0.100000,-0.100000)"
  fill="#ffffff" stroke="#ffffff" stroke-width="50px">
  <path d="M983 2037 c-13 -5 -23 -15 -23 -21 0 -7 -215 -226 -478 -489 l-478
  -477 520 -520 c286 -286 522 -520 524 -520 1 0 115 102 253 227 137 126 253
  229 257 231 10 3 408 -418 405 -428 -1 -4 6 -15 16 -24 16 -15 48 15 519 486
  475 477 500 503 485 521 -16 17 -41 -6 -498 -463 l-481 -481 -409 432 c-226
  237 -431 455 -456 483 -41 45 -48 49 -63 37 -9 -7 -16 -17 -16 -21 0 -4 104
  -116 230 -250 127 -134 230 -246 230 -249 0 -10 -501 -463 -506 -458 -2 2 3
  10 11 17 14 12 -43 73 -467 497 l-483 483 461 461 460 460 420 -442 c230 -242
  436 -460 456 -483 34 -38 37 -40 54 -24 16 15 16 18 -2 40 -11 13 -215 230
  -454 483 -239 252 -434 461 -433 465 1 4 -5 14 -15 23 -13 11 -22 12 -39 4z"/>
  </g>
</svg>